# xmcd CD database file
#
# Track frame offsets:
#	182
#	66495
#	137975
#	216387
#
# Disc length: 3693 seconds
#
# Revision: 7
# Processed by: cddbd v1.5.2PL0 Copyright (c) Steve Scherf et al.
# Submitted via: CDex 1.70beta2
#
DISCID=440e6b04
DTITLE=Charlie Parker - Bird: The Complete Charlie Parker On Verve [CD8]
DYEAR=1990
DGENRE=Jazz
TTITLE0=Jam Blues
TTITLE1=What is This Thing Called Love
TTITLE2=Ballad Medley
TTITLE3=Funky Blues
EXTD=YEAR: 1990
EXTT0=
EXTT1=
EXTT2=a) All The Things You Are\nb) Dearly Beloved\nc) The Nearness Of You\nd) I'll Get By\ne) Everything Happens To Me\nf) The Man I Love\ng) What's New\ni) Isn't It Romantic?
EXTT3=
PLAYORDER=
